<?xml version="1.0" encoding="utf-8"?>
<!-- Generator: Adobe Illustrator 19.0.0, SVG Export Plug-In . SVG Version: 6.00 Build 0)  -->
<svg version="1.1" id="Layer_1" xmlns="http://www.w3.org/2000/svg" xmlns:xlink="http://www.w3.org/1999/xlink" x="0px" y="0px"
	 viewBox="0 0 189.3 182.2" style="enable-background:new 0 0 189.3 182.2;" xml:space="preserve">
<g>
	<path d="M1,141c2.1-2.4,5.1-0.7,5.1-0.7c-0.6-5.6-0.9-12.5,2.3-17.3c1.8-2.7,4.1-3.1,5.7-3c-2.9,16.6,0.8,32.5,3.7,39.6
		c2.2,5.2,4.9,9.7,8.1,13.5C3.7,171.6-2.8,145.5,1,141z"/>
	<path d="M39,86.8c20.4-14.4,36.2-10.2,51.5-6.2l8.9,2.2c19.5,4.2,25.5-5.9,25.7-6.3l0.4-0.7l-0.2-0.8c-2.8-11.4,1.9-19.3,3.1-21.2
		c-1-0.7-2-1.6-3-2.4c-3.9-3.4-7.9-7.7-11.5-12.8c-11.4-15.6-15.8-32.3-9.9-37.2c5.9-4.9,19.9,3.8,31.3,19.4
		c4.6,6.4,8.1,12.9,10.2,18.7c0.5,1.3,0.9,2.7,1.2,3.9c7.5-0.7,14.3,1.3,16.4,2.1c10.7,3.7,19.9,22.7,20,23
		c6.3,11.3,7.2,15.2,5,20.7c-2.2,5.3-10.5,5.6-10.5,5.6h-15.6l-0.1,1.8c-2.9,35.9-33.7,51.2-34,51.3l-1.3,0.6l0.3,1.5
		c0,0.2,0.7,4.2,4,13.3c1.8,4.8,3.7,5.5,6.8,6.3c1.3,0.3,3,0.7,5.2,1.8c5.1,2.5,6.4,7.2,6.8,9.8c-3.3,0-21-0.1-21-0.1
		c-6.8,0-9.6-5.5-9.7-5.7l0-0.1l-12.4-20.9l-1.7,2c-8.1,10.1-16.1,12.7-16.2,12.8l-5.4,1.8l5.3,2c4.6,1.8,5.8,6,6.1,8.5
		c-6.6,0.1-29.1,0.4-41.6,0.4c-13.8,0-25.3-8.8-31.7-24.1C16.4,146.3,9.1,107.9,39,86.8z"/>
</g>
<g id="XMLID_14_">
</g>
<g id="XMLID_15_">
</g>
<g id="XMLID_16_">
</g>
<g id="XMLID_17_">
</g>
<g id="XMLID_18_">
</g>
<g id="XMLID_19_">
</g>
<g id="XMLID_20_">
</g>
<g id="XMLID_21_">
</g>
<g id="XMLID_22_">
</g>
<g id="XMLID_23_">
</g>
<g id="XMLID_24_">
</g>
<g id="XMLID_25_">
</g>
<g id="XMLID_26_">
</g>
<g id="XMLID_27_">
</g>
<g id="XMLID_28_">
</g>
</svg>
