<?xml version="1.0" encoding="utf-8"?>
<!-- Generator: Adobe Illustrator 19.0.0, SVG Export Plug-In . SVG Version: 6.00 Build 0)  -->
<svg version="1.1" id="Layer_1" xmlns="http://www.w3.org/2000/svg" xmlns:xlink="http://www.w3.org/1999/xlink" x="0px" y="0px"
	 viewBox="0 0 189.3 274.2" style="enable-background:new 0 0 189.3 274.2;" xml:space="preserve">
<g>
	<path id="XMLID_3_" d="M1,141c2.1-2.4,5.1-0.7,5.1-0.7c-0.6-5.6-0.9-12.5,2.3-17.3c1.8-2.7,4.1-3.1,5.7-3
		c-2.9,16.6,0.8,32.5,3.7,39.6c2.2,5.2,4.9,9.7,8.1,13.5C3.7,171.6-2.8,145.5,1,141z"/>
	<path id="XMLID_2_" d="M39,86.8c20.4-14.4,36.2-10.2,51.5-6.2l8.9,2.2c19.5,4.2,25.5-5.9,25.7-6.3l0.4-0.7l-0.2-0.8
		c-2.8-11.4,1.9-19.3,3.1-21.2c-1-0.7-2-1.6-3-2.4c-3.9-3.4-7.9-7.7-11.5-12.8c-11.4-15.6-15.8-32.3-9.9-37.2
		c5.9-4.9,19.9,3.8,31.3,19.4c4.6,6.4,8.1,12.9,10.2,18.7c0.5,1.3,0.9,2.7,1.2,3.9c7.5-0.7,14.3,1.3,16.4,2.1
		c10.7,3.7,19.9,22.7,20,23c6.3,11.3,7.2,15.2,5,20.7c-2.2,5.3-10.5,5.6-10.5,5.6h-15.6l-0.1,1.8c-2.9,35.9-33.7,51.2-34,51.3
		l-1.3,0.6l0.3,1.5c0,0.2,0.7,4.2,4,13.3c1.8,4.8,3.7,5.5,6.8,6.3c1.3,0.3,3,0.7,5.2,1.8c5.1,2.5,6.4,7.2,6.8,9.8
		c-3.3,0-21-0.1-21-0.1c-6.8,0-9.6-5.5-9.7-5.7l0-0.1l-12.4-20.9l-1.7,2c-8.1,10.1-16.1,12.7-16.2,12.8l-5.4,1.8l5.3,2
		c4.6,1.8,5.8,6,6.1,8.5c-6.6,0.1-29.1,0.4-41.6,0.4c-13.8,0-25.3-8.8-31.7-24.1C16.4,146.3,9.1,107.9,39,86.8z"/>
</g>
<g id="XMLID_1_">
	<path id="XMLID_18_" d="M45.9,251.2h-11c-1.9-2.8-4-5.8-6.2-8.9s-4.5-6.3-6.8-9.3l-3,2.8v8.6c0,0.9,0.2,1.6,0.5,2.2
		c0.3,0.6,0.8,1,1.6,1.3c0.6,0.2,1.2,0.4,1.7,0.6c0.5,0.1,1.2,0.2,1.9,0.3v2.4H6.6v-2.4c0.6,0,1.1-0.1,1.8-0.2
		c0.6-0.1,1.1-0.2,1.5-0.3c0.7-0.2,1.2-0.6,1.5-1.2c0.3-0.6,0.5-1.3,0.5-2.2v-42.4c0-0.9-0.2-1.8-0.6-2.6c-0.4-0.8-0.9-1.4-1.5-1.8
		c-0.5-0.4-1.3-0.7-2.4-0.8c-1.1-0.1-2-0.2-2.6-0.3v-2.4l13.5-0.8l0.5,0.6v38.6c1.9-1.9,4-4,6.2-6.2c2.2-2.2,4.1-4.2,5.6-5.9
		c0.2-0.2,0.4-0.5,0.6-0.9s0.4-0.6,0.4-0.9c0-0.7-0.5-1.2-1.6-1.5s-2.1-0.5-3.1-0.7v-2.4h16v2.3c-2.1,0.6-3.9,1.4-5.5,2.3
		c-1.6,0.9-2.8,1.8-3.6,2.5c-0.6,0.5-1.4,1.3-2.5,2.4s-2.6,2.6-4.6,4.4c2,2.5,4.3,5.5,6.8,9s4.4,6,5.5,7.5c1.1,1.5,2.1,2.4,2.9,2.8
		c0.9,0.4,2.1,0.7,3.8,0.8V251.2z"/>
	<path id="XMLID_20_" d="M87.5,251.2H69.5v-2.4c0.6,0,1.2-0.1,1.9-0.1c0.7,0,1.3-0.1,1.7-0.3c0.7-0.2,1.2-0.6,1.5-1.2
		c0.3-0.6,0.5-1.3,0.5-2.2v-18.7c0-2.6-0.6-4.6-1.8-6c-1.2-1.4-2.7-2.1-4.5-2.1c-1.3,0-2.5,0.2-3.6,0.6c-1.1,0.4-2.1,0.9-2.9,1.5
		c-0.8,0.6-1.5,1.2-1.9,1.8c-0.4,0.6-0.8,1.1-1,1.6v21c0,0.8,0.2,1.5,0.5,2.1c0.3,0.5,0.8,1,1.5,1.3c0.5,0.2,1.1,0.4,1.7,0.6
		c0.6,0.1,1.2,0.2,1.9,0.3v2.4H47.1v-2.4c0.6,0,1.1-0.1,1.8-0.2c0.6-0.1,1.1-0.2,1.5-0.3c0.7-0.2,1.2-0.6,1.5-1.2
		c0.3-0.6,0.5-1.3,0.5-2.2v-42.5c0-0.8-0.2-1.7-0.6-2.5c-0.4-0.8-0.9-1.5-1.5-1.9c-0.4-0.3-1.2-0.5-2.3-0.7c-1.1-0.1-2-0.2-2.7-0.3
		v-2.4l13.5-0.8l0.5,0.6V220h0.1c0.8-0.8,1.6-1.5,2.2-2.2c0.7-0.6,1.5-1.3,2.6-2c0.9-0.6,2-1.1,3.3-1.5c1.3-0.4,2.7-0.6,4.3-0.6
		c3.3,0,5.8,1,7.5,3.1c1.8,2.1,2.6,5,2.6,8.9v19c0,0.9,0.2,1.6,0.5,2.1s0.8,0.9,1.5,1.2c0.6,0.2,1.1,0.4,1.5,0.5
		c0.5,0.1,1.1,0.2,1.8,0.2V251.2z"/>
	<path id="XMLID_22_" d="M114.4,249.7c-1.6,0.7-3.1,1.2-4.5,1.7c-1.4,0.5-3.2,0.7-5.2,0.7c-3.1,0-5.2-0.8-6.5-2.3
		c-1.2-1.5-1.9-3.7-1.9-6.5v-24.7h-6.6v-3.5h6.7v-11.3h6.7v11.3h10.5v3.5h-10.4v20.4c0,1.5,0.1,2.8,0.2,3.8c0.1,1,0.4,1.9,0.8,2.7
		c0.4,0.7,1,1.3,1.8,1.6c0.8,0.4,1.8,0.6,3.2,0.6c0.6,0,1.5-0.1,2.7-0.2c1.2-0.1,2-0.3,2.5-0.4V249.7z"/>
	<path id="XMLID_24_" d="M140.5,249.7c-1.6,0.7-3.1,1.2-4.5,1.7c-1.4,0.5-3.2,0.7-5.2,0.7c-3.1,0-5.2-0.8-6.5-2.3
		c-1.2-1.5-1.9-3.7-1.9-6.5v-24.7h-6.6v-3.5h6.7v-11.3h6.7v11.3h10.5v3.5h-10.4v20.4c0,1.5,0.1,2.8,0.2,3.8c0.1,1,0.4,1.9,0.8,2.7
		c0.4,0.7,1,1.3,1.8,1.6c0.8,0.4,1.8,0.6,3.2,0.6c0.6,0,1.5-0.1,2.7-0.2c1.2-0.1,2-0.3,2.5-0.4V249.7z"/>
	<path id="XMLID_26_" d="M177.4,219.1c1.5,1.7,2.6,3.7,3.4,6c0.8,2.3,1.2,4.9,1.2,7.8c0,2.9-0.5,5.5-1.4,7.9s-2.2,4.4-3.8,6.1
		c-1.7,1.7-3.5,3-5.5,3.9c-2,0.9-4.2,1.4-6.4,1.4c-2.2,0-4-0.2-5.4-0.7c-1.4-0.5-2.6-1.1-3.4-1.7h-0.3v11c0,0.9,0.2,1.6,0.5,2.2
		c0.3,0.6,0.9,1,1.6,1.3c0.6,0.2,1.4,0.4,2.5,0.6c1.1,0.2,2,0.3,2.7,0.4v2.4h-20.4v-2.4c0.8,0,1.5-0.1,2.2-0.2
		c0.7-0.1,1.4-0.2,1.9-0.4c0.7-0.2,1.3-0.7,1.6-1.3s0.4-1.3,0.4-2.2v-38.8c0-0.7-0.2-1.5-0.6-2.1c-0.4-0.7-0.9-1.2-1.4-1.7
		c-0.4-0.3-1.1-0.5-1.8-0.7c-0.8-0.2-1.6-0.3-2.3-0.3v-2.4l12.4-0.8l0.5,0.4v4.1l0.3,0.1c1.3-1.5,2.9-2.7,4.8-3.7
		c1.9-1,3.8-1.5,5.7-1.5c2.3,0,4.3,0.5,6.2,1.4C174.5,216.2,176.1,217.5,177.4,219.1z M171.4,245.3c1-1.5,1.7-3.3,2.2-5.3
		c0.5-2,0.7-4.3,0.7-6.8c0-1.8-0.2-3.7-0.6-5.6c-0.4-1.9-1-3.5-1.8-5c-0.8-1.4-1.9-2.6-3.3-3.5c-1.4-0.9-3-1.3-4.9-1.3
		c-1.8,0-3.4,0.4-4.7,1.2s-2.4,1.8-3.3,2.9v21.5c0.2,0.7,0.6,1.4,1.1,2.1s1.1,1.3,1.7,1.8c0.8,0.6,1.6,1.1,2.5,1.5
		c0.9,0.4,2,0.6,3.3,0.6c1.4,0,2.7-0.4,4-1.1C169.5,247.7,170.5,246.7,171.4,245.3z"/>
</g>
<g id="XMLID_17_">
</g>
<g id="XMLID_29_">
</g>
<g id="XMLID_30_">
</g>
<g id="XMLID_31_">
</g>
<g id="XMLID_32_">
</g>
<g id="XMLID_33_">
</g>
<g id="XMLID_34_">
</g>
<g id="XMLID_35_">
</g>
<g id="XMLID_36_">
</g>
<g id="XMLID_37_">
</g>
<g id="XMLID_38_">
</g>
<g id="XMLID_39_">
</g>
<g id="XMLID_40_">
</g>
<g id="XMLID_41_">
</g>
<g id="XMLID_42_">
</g>
</svg>
