<?xml version="1.0" encoding="UTF-8"?>
<svg width="250px" height="114px" viewBox="0 0 250 114" version="1.1" xmlns="http://www.w3.org/2000/svg" xmlns:xlink="http://www.w3.org/1999/xlink">
    <!-- Generator: Sketch 52.5 (67469) - http://www.bohemiancoding.com/sketch -->
    <title>Artboard</title>
    <desc>Created with Sketch.</desc>
    <defs>
        <linearGradient x1="100%" y1="134.385011%" x2="0%" y2="-3.25217737%" id="linearGradient-1">
            <stop stop-color="#7F7FD5" offset="0%"></stop>
            <stop stop-color="#86A8E7" offset="100%"></stop>
        </linearGradient>
    </defs>
    <g id="Artboard" stroke="none" stroke-width="1" fill="none" fill-rule="evenodd">
        <g id="Group-2" transform="translate(1.000000, 13.000000)">
            <path d="M16.2295221,63.0594255 L20.5605675,63.0594255 C20.9413207,63.88623 21.1316944,64.7766214 21.1316944,65.7306266 C21.1316944,66.5892312 20.9571852,67.1775256 20.6081614,67.4955273 C20.2591377,67.813529 19.5928297,67.9725275 18.6092174,67.9725275 L0.618720782,67.9725275 C0.206238198,66.954922 0,66.0009311 0,65.1105263 C0,64.4109225 0.174509245,63.8941775 0.52353297,63.5602757 C0.872556695,63.2263739 1.44367786,63.0594255 2.2369136,63.0594255 L5.75886267,63.0594255 C6.0126981,58.6392016 6.13961392,51.1662733 6.13961392,40.6404164 C6.13961392,27.1889437 6.07615601,18.6268759 5.94923829,14.953956 C5.82232057,11.2810362 5.59228566,8.88810916 5.25912665,7.77510314 C4.92596764,6.66209713 4.37864319,5.94660399 3.61713688,5.62860227 C2.85563057,5.31060056 1.85616853,5.15160208 0.618720782,5.15160208 C0.206238198,4.16579675 0,3.19590606 0,2.24190091 C0,1.25609558 0.404544158,0.636001529 1.21364461,0.381600154 C2.02274506,0.127198779 4.6324515,0 9.0428422,0 C11.5494671,0 13.2469662,0.119248856 14.1353902,0.357750145 C15.0238142,0.596251433 15.5314775,1.04144716 15.6583952,1.69335068 C15.7853129,2.34525421 15.8487708,3.46619345 15.8487708,5.05620204 L15.8487708,42.6438172 C18.6409606,40.4814055 21.5758888,37.9692297 24.6536435,35.1072142 C27.7313981,32.2451987 30.4918171,29.4150259 32.9349832,26.6166108 L29.6034097,26.6166108 C29.1909272,25.6944058 28.984689,24.7563148 28.984689,23.8023096 C28.984689,22.8483045 29.1671304,22.1805109 29.5320189,21.7989088 C29.8969073,21.4173067 30.5076897,21.2265086 31.3643843,21.2265086 L46.213683,21.2265086 C46.5944362,22.1169134 46.7848099,23.0709042 46.7848099,24.0885097 C46.7848099,25.0743151 46.586504,25.7421087 46.1898861,26.0919105 C45.7932682,26.4417124 45.0714345,26.6166108 44.0243634,26.6166108 L42.1206071,26.6166108 L27.8424352,39.9249161 C32.5701202,47.1435551 36.1872209,52.366655 38.6938458,55.5943725 C41.2004708,58.8220899 43.0328179,60.8731702 44.190942,61.747675 C45.3490662,62.6221797 46.6896145,63.0594255 48.2126271,63.0594255 C48.6885686,64.7130344 48.6330429,65.9452726 48.0460484,66.756177 C47.459054,67.5670814 45.4521977,67.9725275 42.0254193,67.9725275 C38.9159352,67.9725275 36.9408078,67.7340298 36.099978,67.2570272 C35.2591481,66.7800246 34.426263,65.8498835 33.6012979,64.4665761 C32.7763327,63.0832686 31.4913101,60.9208893 29.7461915,57.9793734 C28.0010728,55.0378575 25.2723828,50.721049 21.5600396,45.0288182 L15.8487708,50.3712204 C15.8805002,54.4098422 16.0074161,58.6392016 16.2295221,63.0594255 Z" id="Path" fill="url(#linearGradient-1)"></path>
            <path d="M57.4618246,2.93406593 L77.4360706,2.93406593 C77.8156306,3.88770986 78.0054077,4.80955183 78.0054077,5.69961949 C78.0054077,6.49432277 77.8472601,7.05060671 77.5309601,7.36848802 C77.2146601,7.68636933 76.6611434,7.8453076 75.8703933,7.8453076 L72.501815,7.8453076 C72.280405,12.2638578 72.1697017,19.8134256 72.1697017,30.4942376 L100.304447,30.4942376 C100.272817,19.8134256 100.146299,12.2638578 99.9248891,7.8453076 L95.0380783,7.8453076 C94.6268883,6.76451115 94.4212964,5.76320005 94.4212964,4.84134425 C94.4212964,4.1737935 94.5873514,3.68903178 94.9194664,3.38704453 C95.2515814,3.08505729 95.7971907,2.93406593 96.5563108,2.93406593 L116.530557,2.93406593 C116.910117,3.88770986 117.099894,4.80955183 117.099894,5.69961949 C117.099894,6.49432277 116.941746,7.05060671 116.625446,7.36848802 C116.309146,7.68636933 115.75563,7.8453076 114.96488,7.8453076 L111.121854,7.8453076 C110.900444,12.2638578 110.78974,19.5432306 110.78974,29.6836443 C110.78974,47.5485739 110.916258,58.6901466 111.169298,63.1086968 L116.530557,63.1086968 C116.910117,64.0623408 117.099894,64.9841827 117.099894,65.8742504 C117.099894,66.6689537 116.941746,67.2252376 116.625446,67.5431189 C116.309146,67.8610002 115.75563,68.0199385 114.96488,68.0199385 L95.0380783,68.0199385 C94.6268883,66.9391421 94.4212964,65.937831 94.4212964,65.0159752 C94.4212964,64.3484244 94.5873514,63.8636627 94.9194664,63.5616754 C95.2515814,63.2596882 95.7971907,63.1086968 96.5563108,63.1086968 L99.9248891,63.1086968 C100.146299,59.3576974 100.272817,50.5366234 100.304447,36.6452102 L72.1697017,36.6452102 C72.2013317,50.5048353 72.3278498,59.3259093 72.5492598,63.1086968 L77.4360706,63.1086968 C77.8156306,64.0623408 78.0054077,64.9841827 78.0054077,65.8742504 C78.0054077,66.6689537 77.8472601,67.2252376 77.5309601,67.5431189 C77.2146601,67.8610002 76.6611434,68.0199385 75.8703933,68.0199385 L55.9435921,68.0199385 C55.5324021,66.9391421 55.3268102,65.937831 55.3268102,65.0159752 C55.3268102,64.3484244 55.4928652,63.8636627 55.8249802,63.5616754 C56.1570952,63.2596882 56.7027046,63.1086968 57.4618246,63.1086968 L61.3048505,63.1086968 C61.5578906,58.6901466 61.6844087,47.357848 61.6844087,29.1114608 C61.6527787,19.3525047 61.5262605,12.2638578 61.3048505,7.8453076 L55.9435921,7.8453076 C55.5324021,6.76451115 55.3268102,5.76320005 55.3268102,4.84134425 C55.3268102,4.1737935 55.4928652,3.68903178 55.8249802,3.38704453 C56.1570952,3.08505729 56.7027046,2.93406593 57.4618246,2.93406593 Z M128.059635,21.2916197 L131.285879,21.2916197 L135.128905,7.74994369 C136.457365,8.16318939 137.58812,8.65589802 138.521205,9.22808438 C139.45429,9.80027074 140.142232,10.4757584 140.585053,11.2545676 C141.027873,12.0333768 141.249279,14.7273805 141.249279,19.3366595 L141.249279,21.2916197 L156.858607,21.2916197 C157.238167,22.3406281 157.427944,23.4531959 157.427944,24.6293568 C157.427944,25.5512126 157.253982,26.1631249 156.906052,26.4651122 C156.558122,26.7670994 155.862272,26.9180908 154.818482,26.9180908 L141.249279,26.9180908 L141.249279,49.4716569 C141.249279,54.843851 141.739537,58.3802275 142.720067,60.0808925 C143.700597,61.7815575 145.179277,62.6795587 147.156152,62.7749231 C149.133028,62.8702875 151.560594,62.2186406 154.438924,60.8199629 C155.134784,61.8689712 155.482709,63.0133267 155.482709,64.2530638 C155.482709,65.9378348 154.557545,67.0662965 152.70719,67.6384828 C150.856835,68.2106692 147.939011,68.4967581 143.953631,68.4967581 C139.620321,68.4967581 136.465275,67.6067038 134.4884,65.8265684 C132.511525,64.0464331 131.523102,60.7246233 131.523102,55.8610392 L131.523102,44.6557791 C131.523102,38.552458 131.34914,32.6399543 131.00121,26.9180908 L126.351623,26.9180908 C125.972063,25.7737181 125.782286,24.6611502 125.782286,23.5803537 C125.782286,22.7856504 125.956248,22.2055258 126.304178,21.8399623 C126.652108,21.4743987 127.237255,21.2916197 128.059635,21.2916197 Z M166.110336,21.2916197 L169.33658,21.2916197 L173.179606,7.74994369 C174.508066,8.16318939 175.638822,8.65589802 176.571907,9.22808438 C177.504992,9.80027074 178.192934,10.4757584 178.635754,11.2545676 C179.078574,12.0333768 179.299981,14.7273805 179.299981,19.3366595 L179.299981,21.2916197 L194.909308,21.2916197 C195.288868,22.3406281 195.478645,23.4531959 195.478645,24.6293568 C195.478645,25.5512126 195.304683,26.1631249 194.956753,26.4651122 C194.608823,26.7670994 193.912973,26.9180908 192.869183,26.9180908 L179.299981,26.9180908 L179.299981,49.4716569 C179.299981,54.843851 179.790238,58.3802275 180.770768,60.0808925 C181.751298,61.7815575 183.229979,62.6795587 185.206854,62.7749231 C187.183729,62.8702875 189.611295,62.2186406 192.489625,60.8199629 C193.185485,61.8689712 193.53341,63.0133267 193.53341,64.2530638 C193.53341,65.9378348 192.608246,67.0662965 190.757891,67.6384828 C188.907536,68.2106692 185.989712,68.4967581 182.004332,68.4967581 C177.671022,68.4967581 174.515977,67.6067038 172.539102,65.8265684 C170.562227,64.0464331 169.573804,60.7246233 169.573804,55.8610392 L169.573804,44.6557791 C169.573804,38.552458 169.399841,32.6399543 169.051911,26.9180908 L164.402324,26.9180908 C164.022764,25.7737181 163.832987,24.6611502 163.832987,23.5803537 C163.832987,22.7856504 164.00695,22.2055258 164.35488,21.8399623 C164.70281,21.4743987 165.287956,21.2916197 166.110336,21.2916197 Z M216.781345,59.8663237 C217.951655,60.661027 219.327539,61.3126739 220.909039,61.821284 C222.490539,62.3298941 224.245978,62.5841953 226.175408,62.5841953 C230.382198,62.5841953 233.292115,61.2967953 234.905245,58.7219567 C236.518375,56.1471181 237.324928,51.6968465 237.324928,45.3710085 C237.324928,38.4729841 236.478838,33.6015261 234.786633,30.7564884 C233.094428,27.9114507 230.366381,26.4889532 226.602411,26.4889532 C224.736241,26.4889532 223.036154,26.8545112 221.502099,27.5856382 C219.968044,28.3167652 218.797751,29.5485368 217.991186,31.2809899 C217.184621,33.0134431 216.781345,35.4372517 216.781345,38.5524885 L216.781345,59.8663237 Z M214.314217,20.8148002 C214.503997,22.1499017 214.503997,23.5485584 214.314217,25.0108125 C216.654837,23.5485584 219.169384,22.3644683 221.857935,21.4585066 C224.546485,20.5525449 227.567105,20.0995708 230.919885,20.0995708 C236.676545,20.0995708 240.962346,21.6889535 243.777416,24.8677666 C246.592486,28.0465797 248,33.3392241 248,40.7458586 C248,50.3458741 246.094321,57.4504148 242.282906,62.0596938 C238.471491,66.6689727 232.833528,68.9735777 225.368847,68.9735777 C223.344527,68.9735777 221.636533,68.8623209 220.244813,68.639804 C218.853093,68.417287 217.698615,68.1629858 216.781345,67.8768926 C216.812975,73.9484256 216.939493,79.3523268 217.160903,84.0887583 L223.376167,84.0887583 C223.755727,84.9152497 223.945504,85.8053041 223.945504,86.758948 C223.945504,87.6172275 223.771542,88.2052991 223.423612,88.5231804 C223.075682,88.8410617 222.411462,89 221.430932,89 L201.836244,89 C201.425054,87.9827798 201.219462,87.0291502 201.219462,86.1390825 C201.219462,85.4397436 201.393424,84.9231943 201.741354,84.5894189 C202.089284,84.2556435 202.658616,84.0887583 203.449366,84.0887583 L206.723055,84.0887583 C206.976095,79.3523268 207.102613,72.9312207 207.102613,64.8252473 L207.102613,44.5127333 C207.102613,35.1352346 206.738873,29.6995458 206.011383,28.2055036 C205.283893,26.7114615 203.892194,25.9644516 201.836244,25.9644516 C201.425054,25.0743839 201.219462,24.152542 201.219462,23.1988981 C201.219462,22.3406185 201.551572,21.7922815 202.215802,21.5538705 C202.880032,21.3154595 206.912797,21.0691052 214.314217,20.8148002 Z" id="kHttp" fill="#222222"></path>
        </g>
    </g>
</svg>